<svg xmlns="http://www.w3.org/2000/svg" version="1.1" xmlns:xlink="http://www.w3.org/1999/xlink" xmlns:svgjs="http://svgjs.dev/svgjs" width="350" height="500" preserveAspectRatio="none" viewBox="0 0 350 500">
    <g mask="url(&quot;#SvgjsMask1091&quot;)" fill="none">
        <path d="M-57.49 147.61C-3.22 160.93-18.89 267.14 98.61 307.61 216.11 348.08 191.83 506.41 254.71 534.43" stroke="rgba(51,121,194,0.58)" stroke-width="2"></path>
        <path d="M-22.19 181.92C35.22 213.5 6.76 364.3 112.22 406.92 217.68 449.54 199.31 536.69 246.63 548.99" stroke="rgba(51,121,194,0.58)" stroke-width="2"></path>
        <path d="M-38.43 262.03C21.84 281.74 13.08 432.17 123.8 457.03 234.52 481.89 235.65 572.85 286.03 579.46" stroke="rgba(51,121,194,0.58)" stroke-width="2"></path>
        <path d="M-67.9 76.85C-23.03 116.15-65.99 215.33 24.43 296.85 114.86 378.37 71.23 485.22 116.77 527.44" stroke="rgba(51,121,194,0.58)" stroke-width="2"></path>
        <path d="M-29.64 376.23C12.71 362.99 15.04 232.85 85.61 241.23 156.18 249.61 143.23 486.16 200.86 542.59" stroke="rgba(51,121,194,0.58)" stroke-width="2"></path>
    </g>
    <defs>
        <mask id="SvgjsMask1091">
            <rect width="350" height="500" fill="#ffffff"></rect>
        </mask>
    </defs>
</svg>